<?xml version="1.0" encoding="utf-8" standalone="no"?>
<!DOCTYPE svg PUBLIC "-//W3C//DTD SVG 1.1//EN"
  "http://www.w3.org/Graphics/SVG/1.1/DTD/svg11.dtd">
<!-- Created with matplotlib (https://matplotlib.org/) -->
<svg height="351.887625pt" version="1.1" viewBox="0 0 558.624375 351.887625" width="558.624375pt" xmlns="http://www.w3.org/2000/svg" xmlns:xlink="http://www.w3.org/1999/xlink">
 <defs>
  <style type="text/css">
*{stroke-linecap:butt;stroke-linejoin:round;}
  </style>
 </defs>
 <g id="figure_1">
  <g id="patch_1">
   <path d="M 0 351.887625 
L 558.624375 351.887625 
L 558.624375 0 
L 0 0 
z
" style="fill:none;"/>
  </g>
  <g id="patch_2">
   <path d="M 63.312187 295.2 
L 495.312187 295.2 
L 495.312187 7.2 
L 63.312187 7.2 
z
" style="fill:#ffffff;"/>
  </g>
  <g id="pane3d_1">
   <g id="patch_3">
    <path d="M 120.580463 231.56215 
L 244.221123 160.951075 
L 242.162637 26.024902 
L 111.6282 89.4675 
" style="fill:#f2f2f2;opacity:0.5;stroke:#f2f2f2;stroke-linejoin:miter;"/>
   </g>
  </g>
  <g id="pane3d_2">
   <g id="patch_4">
    <path d="M 244.221123 160.951075 
L 444.507369 200.427223 
L 452.887105 61.432405 
L 242.162637 26.024902 
" style="fill:#e6e6e6;opacity:0.5;stroke:#e6e6e6;stroke-linejoin:miter;"/>
   </g>
  </g>
  <g id="pane3d_3">
   <g id="patch_5">
    <path d="M 120.580463 231.56215 
L 331.308656 277.538555 
L 444.507369 200.427223 
L 244.221123 160.951075 
" style="fill:#ececec;opacity:0.5;stroke:#ececec;stroke-linejoin:miter;"/>
   </g>
  </g>
  <g id="axis3d_1">
   <g id="line2d_1">
    <path d="M 120.580463 231.56215 
L 331.308656 277.538555 
" style="fill:none;stroke:#000000;stroke-linecap:square;stroke-width:0.8;"/>
   </g>
   <g id="Line3DCollection_1">
    <path d="M 147.189977 237.367779 
L 269.586292 165.950516 
L 268.79902 30.500546 
" style="fill:none;stroke:#b0b0b0;stroke-width:0.8;"/>
    <path d="M 174.0622 243.230726 
L 295.180063 170.995013 
L 295.690351 35.019029 
" style="fill:none;stroke:#b0b0b0;stroke-width:0.8;"/>
    <path d="M 201.254977 249.163611 
L 321.056843 176.095292 
L 322.894255 39.590033 
" style="fill:none;stroke:#b0b0b0;stroke-width:0.8;"/>
    <path d="M 228.774076 255.167693 
L 347.221354 181.252281 
L 350.416215 44.214478 
" style="fill:none;stroke:#b0b0b0;stroke-width:0.8;"/>
    <path d="M 256.625409 261.244261 
L 373.678419 186.466933 
L 378.26184 48.893309 
" style="fill:none;stroke:#b0b0b0;stroke-width:0.8;"/>
    <path d="M 284.815027 267.394635 
L 400.432975 191.740219 
L 406.436876 53.627489 
" style="fill:none;stroke:#b0b0b0;stroke-width:0.8;"/>
    <path d="M 313.349133 273.62017 
L 427.490066 197.073135 
L 434.9472 58.418008 
" style="fill:none;stroke:#b0b0b0;stroke-width:0.8;"/>
   </g>
   <g id="xtick_1">
    <g id="line2d_2">
     <path d="M 148.244714 236.752349 
L 145.076558 238.600942 
" style="fill:none;stroke:#000000;stroke-linecap:square;stroke-width:0.8;"/>
    </g>
    <g id="text_1">
     <!-- 54.0 -->
     <defs>
      <path d="M 10.796875 72.90625 
L 49.515625 72.90625 
L 49.515625 64.59375 
L 19.828125 64.59375 
L 19.828125 46.734375 
Q 21.96875 47.46875 24.109375 47.828125 
Q 26.265625 48.1875 28.421875 48.1875 
Q 40.625 48.1875 47.75 41.5 
Q 54.890625 34.8125 54.890625 23.390625 
Q 54.890625 11.625 47.5625 5.09375 
Q 40.234375 -1.421875 26.90625 -1.421875 
Q 22.3125 -1.421875 17.546875 -0.640625 
Q 12.796875 0.140625 7.71875 1.703125 
L 7.71875 11.625 
Q 12.109375 9.234375 16.796875 8.0625 
Q 21.484375 6.890625 26.703125 6.890625 
Q 35.15625 6.890625 40.078125 11.328125 
Q 45.015625 15.765625 45.015625 23.390625 
Q 45.015625 31 40.078125 35.4375 
Q 35.15625 39.890625 26.703125 39.890625 
Q 22.75 39.890625 18.8125 39.015625 
Q 14.890625 38.140625 10.796875 36.28125 
z
" id="DejaVuSans-53"/>
      <path d="M 37.796875 64.3125 
L 12.890625 25.390625 
L 37.796875 25.390625 
z
M 35.203125 72.90625 
L 47.609375 72.90625 
L 47.609375 25.390625 
L 58.015625 25.390625 
L 58.015625 17.1875 
L 47.609375 17.1875 
L 47.609375 0 
L 37.796875 0 
L 37.796875 17.1875 
L 4.890625 17.1875 
L 4.890625 26.703125 
z
" id="DejaVuSans-52"/>
      <path d="M 10.6875 12.40625 
L 21 12.40625 
L 21 0 
L 10.6875 0 
z
" id="DejaVuSans-46"/>
      <path d="M 31.78125 66.40625 
Q 24.171875 66.40625 20.328125 58.90625 
Q 16.5 51.421875 16.5 36.375 
Q 16.5 21.390625 20.328125 13.890625 
Q 24.171875 6.390625 31.78125 6.390625 
Q 39.453125 6.390625 43.28125 13.890625 
Q 47.125 21.390625 47.125 36.375 
Q 47.125 51.421875 43.28125 58.90625 
Q 39.453125 66.40625 31.78125 66.40625 
z
M 31.78125 74.21875 
Q 44.046875 74.21875 50.515625 64.515625 
Q 56.984375 54.828125 56.984375 36.375 
Q 56.984375 17.96875 50.515625 8.265625 
Q 44.046875 -1.421875 31.78125 -1.421875 
Q 19.53125 -1.421875 13.0625 8.265625 
Q 6.59375 17.96875 6.59375 36.375 
Q 6.59375 54.828125 13.0625 64.515625 
Q 19.53125 74.21875 31.78125 74.21875 
z
" id="DejaVuSans-48"/>
     </defs>
     <g transform="translate(128.39274 258.004049)scale(0.1 -0.1)">
      <use xlink:href="#DejaVuSans-53"/>
      <use x="63.623047" xlink:href="#DejaVuSans-52"/>
      <use x="127.246094" xlink:href="#DejaVuSans-46"/>
      <use x="159.033203" xlink:href="#DejaVuSans-48"/>
     </g>
    </g>
   </g>
   <g id="xtick_2">
    <g id="line2d_3">
     <path d="M 175.106363 242.607979 
L 171.969945 244.478565 
" style="fill:none;stroke:#000000;stroke-linecap:square;stroke-width:0.8;"/>
    </g>
    <g id="text_2">
     <!-- 54.1 -->
     <defs>
      <path d="M 12.40625 8.296875 
L 28.515625 8.296875 
L 28.515625 63.921875 
L 10.984375 60.40625 
L 10.984375 69.390625 
L 28.421875 72.90625 
L 38.28125 72.90625 
L 38.28125 8.296875 
L 54.390625 8.296875 
L 54.390625 0 
L 12.40625 0 
z
" id="DejaVuSans-49"/>
     </defs>
     <g transform="translate(155.262537 263.953823)scale(0.1 -0.1)">
      <use xlink:href="#DejaVuSans-53"/>
      <use x="63.623047" xlink:href="#DejaVuSans-52"/>
      <use x="127.246094" xlink:href="#DejaVuSans-46"/>
      <use x="159.033203" xlink:href="#DejaVuSans-49"/>
     </g>
    </g>
   </g>
   <g id="xtick_3">
    <g id="line2d_4">
     <path d="M 202.288238 248.533415 
L 199.184543 250.426389 
" style="fill:none;stroke:#000000;stroke-linecap:square;stroke-width:0.8;"/>
    </g>
    <g id="text_3">
     <!-- 54.2 -->
     <defs>
      <path d="M 19.1875 8.296875 
L 53.609375 8.296875 
L 53.609375 0 
L 7.328125 0 
L 7.328125 8.296875 
Q 12.9375 14.109375 22.625 23.890625 
Q 32.328125 33.6875 34.8125 36.53125 
Q 39.546875 41.84375 41.421875 45.53125 
Q 43.3125 49.21875 43.3125 52.78125 
Q 43.3125 58.59375 39.234375 62.25 
Q 35.15625 65.921875 28.609375 65.921875 
Q 23.96875 65.921875 18.8125 64.3125 
Q 13.671875 62.703125 7.8125 59.421875 
L 7.8125 69.390625 
Q 13.765625 71.78125 18.9375 73 
Q 24.125 74.21875 28.421875 74.21875 
Q 39.75 74.21875 46.484375 68.546875 
Q 53.21875 62.890625 53.21875 53.421875 
Q 53.21875 48.921875 51.53125 44.890625 
Q 49.859375 40.875 45.40625 35.40625 
Q 44.1875 33.984375 37.640625 27.21875 
Q 31.109375 20.453125 19.1875 8.296875 
z
" id="DejaVuSans-50"/>
     </defs>
     <g transform="translate(182.453375 269.974685)scale(0.1 -0.1)">
      <use xlink:href="#DejaVuSans-53"/>
      <use x="63.623047" xlink:href="#DejaVuSans-52"/>
      <use x="127.246094" xlink:href="#DejaVuSans-46"/>
      <use x="159.033203" xlink:href="#DejaVuSans-50"/>
     </g>
    </g>
   </g>
   <g id="xtick_4">
    <g id="line2d_5">
     <path d="M 229.796098 254.529914 
L 226.72614 256.445679 
" style="fill:none;stroke:#000000;stroke-linecap:square;stroke-width:0.8;"/>
    </g>
    <g id="text_4">
     <!-- 54.3 -->
     <defs>
      <path d="M 40.578125 39.3125 
Q 47.65625 37.796875 51.625 33 
Q 55.609375 28.21875 55.609375 21.1875 
Q 55.609375 10.40625 48.1875 4.484375 
Q 40.765625 -1.421875 27.09375 -1.421875 
Q 22.515625 -1.421875 17.65625 -0.515625 
Q 12.796875 0.390625 7.625 2.203125 
L 7.625 11.71875 
Q 11.71875 9.328125 16.59375 8.109375 
Q 21.484375 6.890625 26.8125 6.890625 
Q 36.078125 6.890625 40.9375 10.546875 
Q 45.796875 14.203125 45.796875 21.1875 
Q 45.796875 27.640625 41.28125 31.265625 
Q 36.765625 34.90625 28.71875 34.90625 
L 20.21875 34.90625 
L 20.21875 43.015625 
L 29.109375 43.015625 
Q 36.375 43.015625 40.234375 45.921875 
Q 44.09375 48.828125 44.09375 54.296875 
Q 44.09375 59.90625 40.109375 62.90625 
Q 36.140625 65.921875 28.71875 65.921875 
Q 24.65625 65.921875 20.015625 65.03125 
Q 15.375 64.15625 9.8125 62.3125 
L 9.8125 71.09375 
Q 15.4375 72.65625 20.34375 73.4375 
Q 25.25 74.21875 29.59375 74.21875 
Q 40.828125 74.21875 47.359375 69.109375 
Q 53.90625 64.015625 53.90625 55.328125 
Q 53.90625 49.265625 50.4375 45.09375 
Q 46.96875 40.921875 40.578125 39.3125 
z
" id="DejaVuSans-51"/>
     </defs>
     <g transform="translate(209.971043 276.067917)scale(0.1 -0.1)">
      <use xlink:href="#DejaVuSans-53"/>
      <use x="63.623047" xlink:href="#DejaVuSans-52"/>
      <use x="127.246094" xlink:href="#DejaVuSans-46"/>
      <use x="159.033203" xlink:href="#DejaVuSans-51"/>
     </g>
    </g>
   </g>
   <g id="xtick_5">
    <g id="line2d_6">
     <path d="M 257.635844 260.598761 
L 254.600667 262.537733 
" style="fill:none;stroke:#000000;stroke-linecap:square;stroke-width:0.8;"/>
    </g>
    <g id="text_5">
     <!-- 54.4 -->
     <g transform="translate(237.821469 282.234831)scale(0.1 -0.1)">
      <use xlink:href="#DejaVuSans-53"/>
      <use x="63.623047" xlink:href="#DejaVuSans-52"/>
      <use x="127.246094" xlink:href="#DejaVuSans-46"/>
      <use x="159.033203" xlink:href="#DejaVuSans-52"/>
     </g>
    </g>
   </g>
   <g id="xtick_6">
    <g id="line2d_7">
     <path d="M 285.813518 266.741274 
L 282.814196 268.703876 
" style="fill:none;stroke:#000000;stroke-linecap:square;stroke-width:0.8;"/>
    </g>
    <g id="text_6">
     <!-- 54.5 -->
     <g transform="translate(266.010725 288.476773)scale(0.1 -0.1)">
      <use xlink:href="#DejaVuSans-53"/>
      <use x="63.623047" xlink:href="#DejaVuSans-52"/>
      <use x="127.246094" xlink:href="#DejaVuSans-46"/>
      <use x="159.033203" xlink:href="#DejaVuSans-53"/>
     </g>
    </g>
   </g>
   <g id="xtick_7">
    <g id="line2d_8">
     <path d="M 314.335311 272.958803 
L 311.372951 274.945469 
" style="fill:none;stroke:#000000;stroke-linecap:square;stroke-width:0.8;"/>
    </g>
    <g id="text_7">
     <!-- 54.6 -->
     <defs>
      <path d="M 33.015625 40.375 
Q 26.375 40.375 22.484375 35.828125 
Q 18.609375 31.296875 18.609375 23.390625 
Q 18.609375 15.53125 22.484375 10.953125 
Q 26.375 6.390625 33.015625 6.390625 
Q 39.65625 6.390625 43.53125 10.953125 
Q 47.40625 15.53125 47.40625 23.390625 
Q 47.40625 31.296875 43.53125 35.828125 
Q 39.65625 40.375 33.015625 40.375 
z
M 52.59375 71.296875 
L 52.59375 62.3125 
Q 48.875 64.0625 45.09375 64.984375 
Q 41.3125 65.921875 37.59375 65.921875 
Q 27.828125 65.921875 22.671875 59.328125 
Q 17.53125 52.734375 16.796875 39.40625 
Q 19.671875 43.65625 24.015625 45.921875 
Q 28.375 48.1875 33.59375 48.1875 
Q 44.578125 48.1875 50.953125 41.515625 
Q 57.328125 34.859375 57.328125 23.390625 
Q 57.328125 12.15625 50.6875 5.359375 
Q 44.046875 -1.421875 33.015625 -1.421875 
Q 20.359375 -1.421875 13.671875 8.265625 
Q 6.984375 17.96875 6.984375 36.375 
Q 6.984375 53.65625 15.1875 63.9375 
Q 23.390625 74.21875 37.203125 74.21875 
Q 40.921875 74.21875 44.703125 73.484375 
Q 48.484375 72.75 52.59375 71.296875 
z
" id="DejaVuSans-54"/>
     </defs>
     <g transform="translate(294.545033 294.795119)scale(0.1 -0.1)">
      <use xlink:href="#DejaVuSans-53"/>
      <use x="63.623047" xlink:href="#DejaVuSans-52"/>
      <use x="127.246094" xlink:href="#DejaVuSans-46"/>
      <use x="159.033203" xlink:href="#DejaVuSans-54"/>
     </g>
    </g>
   </g>
  </g>
  <g id="axis3d_2">
   <g id="line2d_9">
    <path d="M 444.507369 200.427223 
L 331.308656 277.538555 
" style="fill:none;stroke:#000000;stroke-linecap:square;stroke-width:0.8;"/>
   </g>
   <g id="Line3DCollection_2">
    <path d="M 117.664762 86.533598 
L 126.276993 228.308866 
L 336.540802 273.9744 
" style="fill:none;stroke:#b0b0b0;stroke-width:0.8;"/>
    <path d="M 135.261721 77.981091 
L 142.894449 218.818652 
L 351.794347 263.583636 
" style="fill:none;stroke:#b0b0b0;stroke-width:0.8;"/>
    <path d="M 152.503132 69.601387 
L 159.193082 209.510517 
L 366.74187 253.401334 
" style="fill:none;stroke:#b0b0b0;stroke-width:0.8;"/>
    <path d="M 169.399665 61.389301 
L 175.18198 200.379271 
L 381.392491 243.421284 
" style="fill:none;stroke:#b0b0b0;stroke-width:0.8;"/>
    <path d="M 185.961563 53.339856 
L 190.86989 191.419919 
L 395.754967 233.637518 
" style="fill:none;stroke:#b0b0b0;stroke-width:0.8;"/>
    <path d="M 202.198672 45.448265 
L 206.265231 182.627653 
L 409.837718 224.044302 
" style="fill:none;stroke:#b0b0b0;stroke-width:0.8;"/>
    <path d="M 218.120451 37.709931 
L 221.376113 173.997841 
L 423.648835 214.636124 
" style="fill:none;stroke:#b0b0b0;stroke-width:0.8;"/>
    <path d="M 233.736 30.120432 
L 236.210346 165.526023 
L 437.196104 205.40768 
" style="fill:none;stroke:#b0b0b0;stroke-width:0.8;"/>
   </g>
   <g id="xtick_8">
    <g id="line2d_10">
     <path d="M 334.78095 273.592192 
L 340.064448 274.739673 
" style="fill:none;stroke:#000000;stroke-linecap:square;stroke-width:0.8;"/>
    </g>
    <g id="text_8">
     <!-- 81.5 -->
     <defs>
      <path d="M 31.78125 34.625 
Q 24.75 34.625 20.71875 30.859375 
Q 16.703125 27.09375 16.703125 20.515625 
Q 16.703125 13.921875 20.71875 10.15625 
Q 24.75 6.390625 31.78125 6.390625 
Q 38.8125 6.390625 42.859375 10.171875 
Q 46.921875 13.96875 46.921875 20.515625 
Q 46.921875 27.09375 42.890625 30.859375 
Q 38.875 34.625 31.78125 34.625 
z
M 21.921875 38.8125 
Q 15.578125 40.375 12.03125 44.71875 
Q 8.5 49.078125 8.5 55.328125 
Q 8.5 64.0625 14.71875 69.140625 
Q 20.953125 74.21875 31.78125 74.21875 
Q 42.671875 74.21875 48.875 69.140625 
Q 55.078125 64.0625 55.078125 55.328125 
Q 55.078125 49.078125 51.53125 44.71875 
Q 48 40.375 41.703125 38.8125 
Q 48.828125 37.15625 52.796875 32.3125 
Q 56.78125 27.484375 56.78125 20.515625 
Q 56.78125 9.90625 50.3125 4.234375 
Q 43.84375 -1.421875 31.78125 -1.421875 
Q 19.734375 -1.421875 13.25 4.234375 
Q 6.78125 9.90625 6.78125 20.515625 
Q 6.78125 27.484375 10.78125 32.3125 
Q 14.796875 37.15625 21.921875 38.8125 
z
M 18.3125 54.390625 
Q 18.3125 48.734375 21.84375 45.5625 
Q 25.390625 42.390625 31.78125 42.390625 
Q 38.140625 42.390625 41.71875 45.5625 
Q 45.3125 48.734375 45.3125 54.390625 
Q 45.3125 60.0625 41.71875 63.234375 
Q 38.140625 66.40625 31.78125 66.40625 
Q 25.390625 66.40625 21.84375 63.234375 
Q 18.3125 60.0625 18.3125 54.390625 
z
" id="DejaVuSans-56"/>
     </defs>
     <g transform="translate(338.729704 292.981271)scale(0.1 -0.1)">
      <use xlink:href="#DejaVuSans-56"/>
      <use x="63.623047" xlink:href="#DejaVuSans-49"/>
      <use x="127.246094" xlink:href="#DejaVuSans-46"/>
      <use x="159.033203" xlink:href="#DejaVuSans-53"/>
     </g>
    </g>
   </g>
   <g id="xtick_9">
    <g id="line2d_11">
     <path d="M 350.046692 263.209132 
L 355.29353 264.333473 
" style="fill:none;stroke:#000000;stroke-linecap:square;stroke-width:0.8;"/>
    </g>
    <g id="text_9">
     <!-- 82.0 -->
     <g transform="translate(353.841647 282.479505)scale(0.1 -0.1)">
      <use xlink:href="#DejaVuSans-56"/>
      <use x="63.623047" xlink:href="#DejaVuSans-50"/>
      <use x="127.246094" xlink:href="#DejaVuSans-46"/>
      <use x="159.033203" xlink:href="#DejaVuSans-48"/>
     </g>
    </g>
   </g>
   <g id="xtick_10">
    <g id="line2d_12">
     <path d="M 365.00628 253.034305 
L 370.216858 254.136198 
" style="fill:none;stroke:#000000;stroke-linecap:square;stroke-width:0.8;"/>
    </g>
    <g id="text_10">
     <!-- 82.5 -->
     <g transform="translate(368.650541 272.188337)scale(0.1 -0.1)">
      <use xlink:href="#DejaVuSans-56"/>
      <use x="63.623047" xlink:href="#DejaVuSans-50"/>
      <use x="127.246094" xlink:href="#DejaVuSans-46"/>
      <use x="159.033203" xlink:href="#DejaVuSans-53"/>
     </g>
    </g>
   </g>
   <g id="xtick_11">
    <g id="line2d_13">
     <path d="M 379.668834 243.061507 
L 384.843549 244.141618 
" style="fill:none;stroke:#000000;stroke-linecap:square;stroke-width:0.8;"/>
    </g>
    <g id="text_11">
     <!-- 83.0 -->
     <g transform="translate(383.165413 262.101494)scale(0.1 -0.1)">
      <use xlink:href="#DejaVuSans-56"/>
      <use x="63.623047" xlink:href="#DejaVuSans-51"/>
      <use x="127.246094" xlink:href="#DejaVuSans-46"/>
      <use x="159.033203" xlink:href="#DejaVuSans-48"/>
     </g>
    </g>
   </g>
   <g id="xtick_12">
    <g id="line2d_14">
     <path d="M 394.043112 233.284781 
L 399.18236 234.343749 
" style="fill:none;stroke:#000000;stroke-linecap:square;stroke-width:0.8;"/>
    </g>
    <g id="text_12">
     <!-- 83.5 -->
     <g transform="translate(397.394931 252.212953)scale(0.1 -0.1)">
      <use xlink:href="#DejaVuSans-56"/>
      <use x="63.623047" xlink:href="#DejaVuSans-51"/>
      <use x="127.246094" xlink:href="#DejaVuSans-46"/>
      <use x="159.033203" xlink:href="#DejaVuSans-53"/>
     </g>
    </g>
   </g>
   <g id="xtick_13">
    <g id="line2d_15">
     <path d="M 408.137533 223.698401 
L 413.241708 224.736841 
" style="fill:none;stroke:#000000;stroke-linecap:square;stroke-width:0.8;"/>
    </g>
    <g id="text_13">
     <!-- 84.0 -->
     <g transform="translate(411.347429 242.516921)scale(0.1 -0.1)">
      <use xlink:href="#DejaVuSans-56"/>
      <use x="63.623047" xlink:href="#DejaVuSans-52"/>
      <use x="127.246094" xlink:href="#DejaVuSans-46"/>
      <use x="159.033203" xlink:href="#DejaVuSans-48"/>
     </g>
    </g>
   </g>
   <g id="xtick_14">
    <g id="line2d_16">
     <path d="M 421.960192 214.296861 
L 427.029684 215.315365 
" style="fill:none;stroke:#000000;stroke-linecap:square;stroke-width:0.8;"/>
    </g>
    <g id="text_14">
     <!-- 84.5 -->
     <g transform="translate(425.030919 233.007832)scale(0.1 -0.1)">
      <use xlink:href="#DejaVuSans-56"/>
      <use x="63.623047" xlink:href="#DejaVuSans-52"/>
      <use x="127.246094" xlink:href="#DejaVuSans-46"/>
      <use x="159.033203" xlink:href="#DejaVuSans-53"/>
     </g>
    </g>
   </g>
   <g id="xtick_15">
    <g id="line2d_17">
     <path d="M 435.518873 205.074867 
L 440.554069 206.074002 
" style="fill:none;stroke:#000000;stroke-linecap:square;stroke-width:0.8;"/>
    </g>
    <g id="text_15">
     <!-- 85.0 -->
     <g transform="translate(438.453106 223.680331)scale(0.1 -0.1)">
      <use xlink:href="#DejaVuSans-56"/>
      <use x="63.623047" xlink:href="#DejaVuSans-53"/>
      <use x="127.246094" xlink:href="#DejaVuSans-46"/>
      <use x="159.033203" xlink:href="#DejaVuSans-48"/>
     </g>
    </g>
   </g>
  </g>
  <g id="axis3d_3">
   <g id="line2d_18">
    <path d="M 444.507369 200.427223 
L 452.887105 61.432405 
" style="fill:none;stroke:#000000;stroke-linecap:square;stroke-width:0.8;"/>
   </g>
   <g id="Line3DCollection_3">
    <path d="M 444.823388 195.18541 
L 244.14333 155.852023 
L 120.243412 226.212305 
" style="fill:none;stroke:#b0b0b0;stroke-width:0.8;"/>
    <path d="M 445.859688 177.996279 
L 243.888318 139.136922 
L 119.137834 208.664041 
" style="fill:none;stroke:#b0b0b0;stroke-width:0.8;"/>
    <path d="M 446.909528 160.582572 
L 243.630115 122.212624 
L 118.017332 190.878892 
" style="fill:none;stroke:#b0b0b0;stroke-width:0.8;"/>
    <path d="M 447.973174 142.939858 
L 243.368659 105.075178 
L 116.881602 172.85203 
" style="fill:none;stroke:#b0b0b0;stroke-width:0.8;"/>
    <path d="M 449.050901 125.063589 
L 243.10389 87.720532 
L 115.73033 154.578492 
" style="fill:none;stroke:#b0b0b0;stroke-width:0.8;"/>
    <path d="M 450.142989 106.949098 
L 242.835743 70.144529 
L 114.563197 136.053182 
" style="fill:none;stroke:#b0b0b0;stroke-width:0.8;"/>
    <path d="M 451.249729 88.59159 
L 242.564155 52.342908 
L 113.379871 117.270859 
" style="fill:none;stroke:#b0b0b0;stroke-width:0.8;"/>
    <path d="M 452.371416 69.986142 
L 242.289058 34.311296 
L 112.180013 98.226138 
" style="fill:none;stroke:#b0b0b0;stroke-width:0.8;"/>
   </g>
   <g id="xtick_16">
    <g id="line2d_19">
     <path d="M 443.148932 194.857215 
L 448.175787 195.842481 
" style="fill:none;stroke:#000000;stroke-linecap:square;stroke-width:0.8;"/>
    </g>
    <g id="text_16">
     <!-- 35500 -->
     <g transform="translate(448.155505 200.944834)scale(0.1 -0.1)">
      <use xlink:href="#DejaVuSans-51"/>
      <use x="63.623047" xlink:href="#DejaVuSans-53"/>
      <use x="127.246094" xlink:href="#DejaVuSans-53"/>
      <use x="190.869141" xlink:href="#DejaVuSans-48"/>
      <use x="254.492188" xlink:href="#DejaVuSans-48"/>
     </g>
    </g>
   </g>
   <g id="xtick_17">
    <g id="line2d_20">
     <path d="M 444.174007 177.671953 
L 449.234584 178.64561 
" style="fill:none;stroke:#000000;stroke-linecap:square;stroke-width:0.8;"/>
    </g>
    <g id="text_17">
     <!-- 35750 -->
     <defs>
      <path d="M 8.203125 72.90625 
L 55.078125 72.90625 
L 55.078125 68.703125 
L 28.609375 0 
L 18.3125 0 
L 43.21875 64.59375 
L 8.203125 64.59375 
z
" id="DejaVuSans-55"/>
     </defs>
     <g transform="translate(449.314394 183.7774)scale(0.1 -0.1)">
      <use xlink:href="#DejaVuSans-51"/>
      <use x="63.623047" xlink:href="#DejaVuSans-53"/>
      <use x="127.246094" xlink:href="#DejaVuSans-55"/>
      <use x="190.869141" xlink:href="#DejaVuSans-53"/>
      <use x="254.492188" xlink:href="#DejaVuSans-48"/>
     </g>
    </g>
   </g>
   <g id="xtick_18">
    <g id="line2d_21">
     <path d="M 445.21247 160.262244 
L 450.307224 161.223903 
" style="fill:none;stroke:#000000;stroke-linecap:square;stroke-width:0.8;"/>
    </g>
    <g id="text_18">
     <!-- 36000 -->
     <g transform="translate(450.488395 166.386113)scale(0.1 -0.1)">
      <use xlink:href="#DejaVuSans-51"/>
      <use x="63.623047" xlink:href="#DejaVuSans-54"/>
      <use x="127.246094" xlink:href="#DejaVuSans-48"/>
      <use x="190.869141" xlink:href="#DejaVuSans-48"/>
      <use x="254.492188" xlink:href="#DejaVuSans-48"/>
     </g>
    </g>
   </g>
   <g id="xtick_19">
    <g id="line2d_22">
     <path d="M 446.264585 142.623662 
L 451.39398 143.572922 
" style="fill:none;stroke:#000000;stroke-linecap:square;stroke-width:0.8;"/>
    </g>
    <g id="text_19">
     <!-- 36250 -->
     <g transform="translate(451.677804 148.766568)scale(0.1 -0.1)">
      <use xlink:href="#DejaVuSans-51"/>
      <use x="63.623047" xlink:href="#DejaVuSans-54"/>
      <use x="127.246094" xlink:href="#DejaVuSans-50"/>
      <use x="190.869141" xlink:href="#DejaVuSans-53"/>
      <use x="254.492188" xlink:href="#DejaVuSans-48"/>
     </g>
    </g>
   </g>
   <g id="xtick_20">
    <g id="line2d_23">
     <path d="M 447.330623 124.751662 
L 452.495133 125.68811 
" style="fill:none;stroke:#000000;stroke-linecap:square;stroke-width:0.8;"/>
    </g>
    <g id="text_20">
     <!-- 36500 -->
     <g transform="translate(452.882928 130.91424)scale(0.1 -0.1)">
      <use xlink:href="#DejaVuSans-51"/>
      <use x="63.623047" xlink:href="#DejaVuSans-54"/>
      <use x="127.246094" xlink:href="#DejaVuSans-53"/>
      <use x="190.869141" xlink:href="#DejaVuSans-48"/>
      <use x="254.492188" xlink:href="#DejaVuSans-48"/>
     </g>
    </g>
   </g>
   <g id="xtick_21">
    <g id="line2d_24">
     <path d="M 448.410862 106.641583 
L 453.61097 107.564791 
" style="fill:none;stroke:#000000;stroke-linecap:square;stroke-width:0.8;"/>
    </g>
    <g id="text_21">
     <!-- 36750 -->
     <g transform="translate(454.104078 112.824486)scale(0.1 -0.1)">
      <use xlink:href="#DejaVuSans-51"/>
      <use x="63.623047" xlink:href="#DejaVuSans-54"/>
      <use x="127.246094" xlink:href="#DejaVuSans-55"/>
      <use x="190.869141" xlink:href="#DejaVuSans-53"/>
      <use x="254.492188" xlink:href="#DejaVuSans-48"/>
     </g>
    </g>
   </g>
   <g id="xtick_22">
    <g id="line2d_25">
     <path d="M 449.505588 88.288633 
L 454.741789 89.198161 
" style="fill:none;stroke:#000000;stroke-linecap:square;stroke-width:0.8;"/>
    </g>
    <g id="text_22">
     <!-- 37000 -->
     <g transform="translate(455.341579 94.492537)scale(0.1 -0.1)">
      <use xlink:href="#DejaVuSans-51"/>
      <use x="63.623047" xlink:href="#DejaVuSans-55"/>
      <use x="127.246094" xlink:href="#DejaVuSans-48"/>
      <use x="190.869141" xlink:href="#DejaVuSans-48"/>
      <use x="254.492188" xlink:href="#DejaVuSans-48"/>
     </g>
    </g>
   </g>
   <g id="xtick_23">
    <g id="line2d_26">
     <path d="M 450.615094 69.687895 
L 455.887891 70.583287 
" style="fill:none;stroke:#000000;stroke-linecap:square;stroke-width:0.8;"/>
    </g>
    <g id="text_23">
     <!-- 37250 -->
     <g transform="translate(456.595759 75.913497)scale(0.1 -0.1)">
      <use xlink:href="#DejaVuSans-51"/>
      <use x="63.623047" xlink:href="#DejaVuSans-55"/>
      <use x="127.246094" xlink:href="#DejaVuSans-50"/>
      <use x="190.869141" xlink:href="#DejaVuSans-53"/>
      <use x="254.492188" xlink:href="#DejaVuSans-48"/>
     </g>
    </g>
   </g>
  </g>
  <g id="axes_1">
   <g id="line2d_27">
    <path clip-path="url(#p43eb5f871a)" d="M 327.29229 128.575739 
L 319.183958 120.551854 
L 311.024518 112.863505 
L 306.169141 106.525029 
L 304.779756 114.346786 
L 304.259682 119.825671 
L 303.599429 114.270949 
L 302.62888 108.586863 
" style="fill:none;stroke:#ff0000;stroke-linecap:square;"/>
   </g>
   <g id="line2d_28">
    <path clip-path="url(#p43eb5f871a)" d="M 302.62888 108.586863 
L 301.484847 103.087328 
L 300.242797 97.582808 
L 298.858232 91.082826 
L 297.372034 85.95691 
L 295.80584 81.4183 
L 294.153502 76.224666 
L 292.371055 71.030032 
L 290.44012 65.897241 
" style="fill:none;stroke:#008000;stroke-linecap:square;"/>
    <defs>
     <path d="M 0 2.12132 
L 2.12132 0 
L 0 -2.12132 
L -2.12132 0 
z
" id="m240c440c33" style="stroke:#008000;stroke-linejoin:miter;"/>
    </defs>
    <g clip-path="url(#p43eb5f871a)">
     <use style="fill:#008000;stroke:#008000;stroke-linejoin:miter;" x="302.62888" xlink:href="#m240c440c33" y="108.586863"/>
     <use style="fill:#008000;stroke:#008000;stroke-linejoin:miter;" x="301.484847" xlink:href="#m240c440c33" y="103.087328"/>
     <use style="fill:#008000;stroke:#008000;stroke-linejoin:miter;" x="300.242797" xlink:href="#m240c440c33" y="97.582808"/>
     <use style="fill:#008000;stroke:#008000;stroke-linejoin:miter;" x="298.858232" xlink:href="#m240c440c33" y="91.082826"/>
     <use style="fill:#008000;stroke:#008000;stroke-linejoin:miter;" x="297.372034" xlink:href="#m240c440c33" y="85.95691"/>
     <use style="fill:#008000;stroke:#008000;stroke-linejoin:miter;" x="295.80584" xlink:href="#m240c440c33" y="81.4183"/>
     <use style="fill:#008000;stroke:#008000;stroke-linejoin:miter;" x="294.153502" xlink:href="#m240c440c33" y="76.224666"/>
     <use style="fill:#008000;stroke:#008000;stroke-linejoin:miter;" x="292.371055" xlink:href="#m240c440c33" y="71.030032"/>
     <use style="fill:#008000;stroke:#008000;stroke-linejoin:miter;" x="290.44012" xlink:href="#m240c440c33" y="65.897241"/>
    </g>
   </g>
   <g id="line2d_29">
    <path clip-path="url(#p43eb5f871a)" d="M 302.62888 108.586863 
L 295.371233 105.709347 
L 289.034488 99.592837 
L 282.4145 94.233154 
L 274.402353 87.608112 
L 266.32132 79.900908 
L 259.001658 72.081103 
L 252.730208 65.438677 
L 247.487854 61.185899 
" style="fill:none;stroke:#bfbf00;stroke-linecap:square;"/>
    <defs>
     <path d="M -1.5 1.5 
L 1.5 -1.5 
M -1.5 -1.5 
L 1.5 1.5 
" id="m5142de1ac7" style="stroke:#bfbf00;"/>
    </defs>
    <g clip-path="url(#p43eb5f871a)">
     <use style="fill:#bfbf00;stroke:#bfbf00;" x="302.62888" xlink:href="#m5142de1ac7" y="108.586863"/>
     <use style="fill:#bfbf00;stroke:#bfbf00;" x="295.371233" xlink:href="#m5142de1ac7" y="105.709347"/>
     <use style="fill:#bfbf00;stroke:#bfbf00;" x="289.034488" xlink:href="#m5142de1ac7" y="99.592837"/>
     <use style="fill:#bfbf00;stroke:#bfbf00;" x="282.4145" xlink:href="#m5142de1ac7" y="94.233154"/>
     <use style="fill:#bfbf00;stroke:#bfbf00;" x="274.402353" xlink:href="#m5142de1ac7" y="87.608112"/>
     <use style="fill:#bfbf00;stroke:#bfbf00;" x="266.32132" xlink:href="#m5142de1ac7" y="79.900908"/>
     <use style="fill:#bfbf00;stroke:#bfbf00;" x="259.001658" xlink:href="#m5142de1ac7" y="72.081103"/>
     <use style="fill:#bfbf00;stroke:#bfbf00;" x="252.730208" xlink:href="#m5142de1ac7" y="65.438677"/>
     <use style="fill:#bfbf00;stroke:#bfbf00;" x="247.487854" xlink:href="#m5142de1ac7" y="61.185899"/>
    </g>
   </g>
   <g id="line2d_30">
    <path clip-path="url(#p43eb5f871a)" d="M 302.62888 108.586863 
L 300.766654 110.169876 
L 305.383954 115.88865 
L 301.382122 123.790248 
L 298.981429 135.283136 
L 294.773315 147.723507 
L 288.179272 159.550601 
L 279.407294 169.936879 
L 268.749057 178.39578 
" style="fill:none;stroke:#00bfbf;stroke-linecap:square;"/>
    <defs>
     <path d="M -1.5 0 
L 1.5 0 
M 0 1.5 
L 0 -1.5 
" id="m395e4e6595" style="stroke:#00bfbf;"/>
    </defs>
    <g clip-path="url(#p43eb5f871a)">
     <use style="fill:#00bfbf;stroke:#00bfbf;" x="302.62888" xlink:href="#m395e4e6595" y="108.586863"/>
     <use style="fill:#00bfbf;stroke:#00bfbf;" x="300.766654" xlink:href="#m395e4e6595" y="110.169876"/>
     <use style="fill:#00bfbf;stroke:#00bfbf;" x="305.383954" xlink:href="#m395e4e6595" y="115.88865"/>
     <use style="fill:#00bfbf;stroke:#00bfbf;" x="301.382122" xlink:href="#m395e4e6595" y="123.790248"/>
     <use style="fill:#00bfbf;stroke:#00bfbf;" x="298.981429" xlink:href="#m395e4e6595" y="135.283136"/>
     <use style="fill:#00bfbf;stroke:#00bfbf;" x="294.773315" xlink:href="#m395e4e6595" y="147.723507"/>
     <use style="fill:#00bfbf;stroke:#00bfbf;" x="288.179272" xlink:href="#m395e4e6595" y="159.550601"/>
     <use style="fill:#00bfbf;stroke:#00bfbf;" x="279.407294" xlink:href="#m395e4e6595" y="169.936879"/>
     <use style="fill:#00bfbf;stroke:#00bfbf;" x="268.749057" xlink:href="#m395e4e6595" y="178.39578"/>
    </g>
   </g>
   <g id="line2d_31">
    <path clip-path="url(#p43eb5f871a)" d="M 302.62888 108.586863 
L 300.399516 101.311666 
L 299.905055 93.154059 
L 297.86384 84.523517 
L 296.882814 76.390164 
L 295.163368 69.041954 
L 293.992896 62.386084 
L 292.326209 55.962212 
L 290.766535 49.702473 
" style="fill:none;stroke:#bf00bf;stroke-linecap:square;"/>
    <defs>
     <path d="M 0 0 
L 0 1.5 
M 0 0 
L 1.2 -0.75 
M 0 0 
L -1.2 -0.75 
" id="m88fd95f8f3" style="stroke:#bf00bf;"/>
    </defs>
    <g clip-path="url(#p43eb5f871a)">
     <use style="fill:#bf00bf;stroke:#bf00bf;" x="302.62888" xlink:href="#m88fd95f8f3" y="108.586863"/>
     <use style="fill:#bf00bf;stroke:#bf00bf;" x="300.399516" xlink:href="#m88fd95f8f3" y="101.311666"/>
     <use style="fill:#bf00bf;stroke:#bf00bf;" x="299.905055" xlink:href="#m88fd95f8f3" y="93.154059"/>
     <use style="fill:#bf00bf;stroke:#bf00bf;" x="297.86384" xlink:href="#m88fd95f8f3" y="84.523517"/>
     <use style="fill:#bf00bf;stroke:#bf00bf;" x="296.882814" xlink:href="#m88fd95f8f3" y="76.390164"/>
     <use style="fill:#bf00bf;stroke:#bf00bf;" x="295.163368" xlink:href="#m88fd95f8f3" y="69.041954"/>
     <use style="fill:#bf00bf;stroke:#bf00bf;" x="293.992896" xlink:href="#m88fd95f8f3" y="62.386084"/>
     <use style="fill:#bf00bf;stroke:#bf00bf;" x="292.326209" xlink:href="#m88fd95f8f3" y="55.962212"/>
     <use style="fill:#bf00bf;stroke:#bf00bf;" x="290.766535" xlink:href="#m88fd95f8f3" y="49.702473"/>
    </g>
   </g>
   <g id="text_24">
    <!-- china_with_normal_tGAN_2 ade  = 0.432157    china_with_normal_tGAN_2 fde = 0.093151 -->
    <defs>
     <path d="M 48.78125 52.59375 
L 48.78125 44.1875 
Q 44.96875 46.296875 41.140625 47.34375 
Q 37.3125 48.390625 33.40625 48.390625 
Q 24.65625 48.390625 19.8125 42.84375 
Q 14.984375 37.3125 14.984375 27.296875 
Q 14.984375 17.28125 19.8125 11.734375 
Q 24.65625 6.203125 33.40625 6.203125 
Q 37.3125 6.203125 41.140625 7.25 
Q 44.96875 8.296875 48.78125 10.40625 
L 48.78125 2.09375 
Q 45.015625 0.34375 40.984375 -0.53125 
Q 36.96875 -1.421875 32.421875 -1.421875 
Q 20.0625 -1.421875 12.78125 6.34375 
Q 5.515625 14.109375 5.515625 27.296875 
Q 5.515625 40.671875 12.859375 48.328125 
Q 20.21875 56 33.015625 56 
Q 37.15625 56 41.109375 55.140625 
Q 45.0625 54.296875 48.78125 52.59375 
z
" id="DejaVuSans-99"/>
     <path d="M 54.890625 33.015625 
L 54.890625 0 
L 45.90625 0 
L 45.90625 32.71875 
Q 45.90625 40.484375 42.875 44.328125 
Q 39.84375 48.1875 33.796875 48.1875 
Q 26.515625 48.1875 22.3125 43.546875 
Q 18.109375 38.921875 18.109375 30.90625 
L 18.109375 0 
L 9.078125 0 
L 9.078125 75.984375 
L 18.109375 75.984375 
L 18.109375 46.1875 
Q 21.34375 51.125 25.703125 53.5625 
Q 30.078125 56 35.796875 56 
Q 45.21875 56 50.046875 50.171875 
Q 54.890625 44.34375 54.890625 33.015625 
z
" id="DejaVuSans-104"/>
     <path d="M 9.421875 54.6875 
L 18.40625 54.6875 
L 18.40625 0 
L 9.421875 0 
z
M 9.421875 75.984375 
L 18.40625 75.984375 
L 18.40625 64.59375 
L 9.421875 64.59375 
z
" id="DejaVuSans-105"/>
     <path d="M 54.890625 33.015625 
L 54.890625 0 
L 45.90625 0 
L 45.90625 32.71875 
Q 45.90625 40.484375 42.875 44.328125 
Q 39.84375 48.1875 33.796875 48.1875 
Q 26.515625 48.1875 22.3125 43.546875 
Q 18.109375 38.921875 18.109375 30.90625 
L 18.109375 0 
L 9.078125 0 
L 9.078125 54.6875 
L 18.109375 54.6875 
L 18.109375 46.1875 
Q 21.34375 51.125 25.703125 53.5625 
Q 30.078125 56 35.796875 56 
Q 45.21875 56 50.046875 50.171875 
Q 54.890625 44.34375 54.890625 33.015625 
z
" id="DejaVuSans-110"/>
     <path d="M 34.28125 27.484375 
Q 23.390625 27.484375 19.1875 25 
Q 14.984375 22.515625 14.984375 16.5 
Q 14.984375 11.71875 18.140625 8.90625 
Q 21.296875 6.109375 26.703125 6.109375 
Q 34.1875 6.109375 38.703125 11.40625 
Q 43.21875 16.703125 43.21875 25.484375 
L 43.21875 27.484375 
z
M 52.203125 31.203125 
L 52.203125 0 
L 43.21875 0 
L 43.21875 8.296875 
Q 40.140625 3.328125 35.546875 0.953125 
Q 30.953125 -1.421875 24.3125 -1.421875 
Q 15.921875 -1.421875 10.953125 3.296875 
Q 6 8.015625 6 15.921875 
Q 6 25.140625 12.171875 29.828125 
Q 18.359375 34.515625 30.609375 34.515625 
L 43.21875 34.515625 
L 43.21875 35.40625 
Q 43.21875 41.609375 39.140625 45 
Q 35.0625 48.390625 27.6875 48.390625 
Q 23 48.390625 18.546875 47.265625 
Q 14.109375 46.140625 10.015625 43.890625 
L 10.015625 52.203125 
Q 14.9375 54.109375 19.578125 55.046875 
Q 24.21875 56 28.609375 56 
Q 40.484375 56 46.34375 49.84375 
Q 52.203125 43.703125 52.203125 31.203125 
z
" id="DejaVuSans-97"/>
     <path d="M 50.984375 -16.609375 
L 50.984375 -23.578125 
L -0.984375 -23.578125 
L -0.984375 -16.609375 
z
" id="DejaVuSans-95"/>
     <path d="M 4.203125 54.6875 
L 13.1875 54.6875 
L 24.421875 12.015625 
L 35.59375 54.6875 
L 46.1875 54.6875 
L 57.421875 12.015625 
L 68.609375 54.6875 
L 77.59375 54.6875 
L 63.28125 0 
L 52.6875 0 
L 40.921875 44.828125 
L 29.109375 0 
L 18.5 0 
z
" id="DejaVuSans-119"/>
     <path d="M 18.3125 70.21875 
L 18.3125 54.6875 
L 36.8125 54.6875 
L 36.8125 47.703125 
L 18.3125 47.703125 
L 18.3125 18.015625 
Q 18.3125 11.328125 20.140625 9.421875 
Q 21.96875 7.515625 27.59375 7.515625 
L 36.8125 7.515625 
L 36.8125 0 
L 27.59375 0 
Q 17.1875 0 13.234375 3.875 
Q 9.28125 7.765625 9.28125 18.015625 
L 9.28125 47.703125 
L 2.6875 47.703125 
L 2.6875 54.6875 
L 9.28125 54.6875 
L 9.28125 70.21875 
z
" id="DejaVuSans-116"/>
     <path d="M 30.609375 48.390625 
Q 23.390625 48.390625 19.1875 42.75 
Q 14.984375 37.109375 14.984375 27.296875 
Q 14.984375 17.484375 19.15625 11.84375 
Q 23.34375 6.203125 30.609375 6.203125 
Q 37.796875 6.203125 41.984375 11.859375 
Q 46.1875 17.53125 46.1875 27.296875 
Q 46.1875 37.015625 41.984375 42.703125 
Q 37.796875 48.390625 30.609375 48.390625 
z
M 30.609375 56 
Q 42.328125 56 49.015625 48.375 
Q 55.71875 40.765625 55.71875 27.296875 
Q 55.71875 13.875 49.015625 6.21875 
Q 42.328125 -1.421875 30.609375 -1.421875 
Q 18.84375 -1.421875 12.171875 6.21875 
Q 5.515625 13.875 5.515625 27.296875 
Q 5.515625 40.765625 12.171875 48.375 
Q 18.84375 56 30.609375 56 
z
" id="DejaVuSans-111"/>
     <path d="M 41.109375 46.296875 
Q 39.59375 47.171875 37.8125 47.578125 
Q 36.03125 48 33.890625 48 
Q 26.265625 48 22.1875 43.046875 
Q 18.109375 38.09375 18.109375 28.8125 
L 18.109375 0 
L 9.078125 0 
L 9.078125 54.6875 
L 18.109375 54.6875 
L 18.109375 46.1875 
Q 20.953125 51.171875 25.484375 53.578125 
Q 30.03125 56 36.53125 56 
Q 37.453125 56 38.578125 55.875 
Q 39.703125 55.765625 41.0625 55.515625 
z
" id="DejaVuSans-114"/>
     <path d="M 52 44.1875 
Q 55.375 50.25 60.0625 53.125 
Q 64.75 56 71.09375 56 
Q 79.640625 56 84.28125 50.015625 
Q 88.921875 44.046875 88.921875 33.015625 
L 88.921875 0 
L 79.890625 0 
L 79.890625 32.71875 
Q 79.890625 40.578125 77.09375 44.375 
Q 74.3125 48.1875 68.609375 48.1875 
Q 61.625 48.1875 57.5625 43.546875 
Q 53.515625 38.921875 53.515625 30.90625 
L 53.515625 0 
L 44.484375 0 
L 44.484375 32.71875 
Q 44.484375 40.625 41.703125 44.40625 
Q 38.921875 48.1875 33.109375 48.1875 
Q 26.21875 48.1875 22.15625 43.53125 
Q 18.109375 38.875 18.109375 30.90625 
L 18.109375 0 
L 9.078125 0 
L 9.078125 54.6875 
L 18.109375 54.6875 
L 18.109375 46.1875 
Q 21.1875 51.21875 25.484375 53.609375 
Q 29.78125 56 35.6875 56 
Q 41.65625 56 45.828125 52.96875 
Q 50 49.953125 52 44.1875 
z
" id="DejaVuSans-109"/>
     <path d="M 9.421875 75.984375 
L 18.40625 75.984375 
L 18.40625 0 
L 9.421875 0 
z
" id="DejaVuSans-108"/>
     <path d="M 59.515625 10.40625 
L 59.515625 29.984375 
L 43.40625 29.984375 
L 43.40625 38.09375 
L 69.28125 38.09375 
L 69.28125 6.78125 
Q 63.578125 2.734375 56.6875 0.65625 
Q 49.8125 -1.421875 42 -1.421875 
Q 24.90625 -1.421875 15.25 8.5625 
Q 5.609375 18.5625 5.609375 36.375 
Q 5.609375 54.25 15.25 64.234375 
Q 24.90625 74.21875 42 74.21875 
Q 49.125 74.21875 55.546875 72.453125 
Q 61.96875 70.703125 67.390625 67.28125 
L 67.390625 56.78125 
Q 61.921875 61.421875 55.765625 63.765625 
Q 49.609375 66.109375 42.828125 66.109375 
Q 29.4375 66.109375 22.71875 58.640625 
Q 16.015625 51.171875 16.015625 36.375 
Q 16.015625 21.625 22.71875 14.15625 
Q 29.4375 6.6875 42.828125 6.6875 
Q 48.046875 6.6875 52.140625 7.59375 
Q 56.25 8.5 59.515625 10.40625 
z
" id="DejaVuSans-71"/>
     <path d="M 34.1875 63.1875 
L 20.796875 26.90625 
L 47.609375 26.90625 
z
M 28.609375 72.90625 
L 39.796875 72.90625 
L 67.578125 0 
L 57.328125 0 
L 50.6875 18.703125 
L 17.828125 18.703125 
L 11.1875 0 
L 0.78125 0 
z
" id="DejaVuSans-65"/>
     <path d="M 9.8125 72.90625 
L 23.09375 72.90625 
L 55.421875 11.921875 
L 55.421875 72.90625 
L 64.984375 72.90625 
L 64.984375 0 
L 51.703125 0 
L 19.390625 60.984375 
L 19.390625 0 
L 9.8125 0 
z
" id="DejaVuSans-78"/>
     <path id="DejaVuSans-32"/>
     <path d="M 45.40625 46.390625 
L 45.40625 75.984375 
L 54.390625 75.984375 
L 54.390625 0 
L 45.40625 0 
L 45.40625 8.203125 
Q 42.578125 3.328125 38.25 0.953125 
Q 33.9375 -1.421875 27.875 -1.421875 
Q 17.96875 -1.421875 11.734375 6.484375 
Q 5.515625 14.40625 5.515625 27.296875 
Q 5.515625 40.1875 11.734375 48.09375 
Q 17.96875 56 27.875 56 
Q 33.9375 56 38.25 53.625 
Q 42.578125 51.265625 45.40625 46.390625 
z
M 14.796875 27.296875 
Q 14.796875 17.390625 18.875 11.75 
Q 22.953125 6.109375 30.078125 6.109375 
Q 37.203125 6.109375 41.296875 11.75 
Q 45.40625 17.390625 45.40625 27.296875 
Q 45.40625 37.203125 41.296875 42.84375 
Q 37.203125 48.484375 30.078125 48.484375 
Q 22.953125 48.484375 18.875 42.84375 
Q 14.796875 37.203125 14.796875 27.296875 
z
" id="DejaVuSans-100"/>
     <path d="M 56.203125 29.59375 
L 56.203125 25.203125 
L 14.890625 25.203125 
Q 15.484375 15.921875 20.484375 11.0625 
Q 25.484375 6.203125 34.421875 6.203125 
Q 39.59375 6.203125 44.453125 7.46875 
Q 49.3125 8.734375 54.109375 11.28125 
L 54.109375 2.78125 
Q 49.265625 0.734375 44.1875 -0.34375 
Q 39.109375 -1.421875 33.890625 -1.421875 
Q 20.796875 -1.421875 13.15625 6.1875 
Q 5.515625 13.8125 5.515625 26.8125 
Q 5.515625 40.234375 12.765625 48.109375 
Q 20.015625 56 32.328125 56 
Q 43.359375 56 49.78125 48.890625 
Q 56.203125 41.796875 56.203125 29.59375 
z
M 47.21875 32.234375 
Q 47.125 39.59375 43.09375 43.984375 
Q 39.0625 48.390625 32.421875 48.390625 
Q 24.90625 48.390625 20.390625 44.140625 
Q 15.875 39.890625 15.1875 32.171875 
z
" id="DejaVuSans-101"/>
     <path d="M 10.59375 45.40625 
L 73.1875 45.40625 
L 73.1875 37.203125 
L 10.59375 37.203125 
z
M 10.59375 25.484375 
L 73.1875 25.484375 
L 73.1875 17.1875 
L 10.59375 17.1875 
z
" id="DejaVuSans-61"/>
     <path d="M 37.109375 75.984375 
L 37.109375 68.5 
L 28.515625 68.5 
Q 23.6875 68.5 21.796875 66.546875 
Q 19.921875 64.59375 19.921875 59.515625 
L 19.921875 54.6875 
L 34.71875 54.6875 
L 34.71875 47.703125 
L 19.921875 47.703125 
L 19.921875 0 
L 10.890625 0 
L 10.890625 47.703125 
L 2.296875 47.703125 
L 2.296875 54.6875 
L 10.890625 54.6875 
L 10.890625 58.5 
Q 10.890625 67.625 15.140625 71.796875 
Q 19.390625 75.984375 28.609375 75.984375 
z
" id="DejaVuSans-102"/>
     <path d="M 10.984375 1.515625 
L 10.984375 10.5 
Q 14.703125 8.734375 18.5 7.8125 
Q 22.3125 6.890625 25.984375 6.890625 
Q 35.75 6.890625 40.890625 13.453125 
Q 46.046875 20.015625 46.78125 33.40625 
Q 43.953125 29.203125 39.59375 26.953125 
Q 35.25 24.703125 29.984375 24.703125 
Q 19.046875 24.703125 12.671875 31.3125 
Q 6.296875 37.9375 6.296875 49.421875 
Q 6.296875 60.640625 12.9375 67.421875 
Q 19.578125 74.21875 30.609375 74.21875 
Q 43.265625 74.21875 49.921875 64.515625 
Q 56.59375 54.828125 56.59375 36.375 
Q 56.59375 19.140625 48.40625 8.859375 
Q 40.234375 -1.421875 26.421875 -1.421875 
Q 22.703125 -1.421875 18.890625 -0.6875 
Q 15.09375 0.046875 10.984375 1.515625 
z
M 30.609375 32.421875 
Q 37.25 32.421875 41.125 36.953125 
Q 45.015625 41.5 45.015625 49.421875 
Q 45.015625 57.28125 41.125 61.84375 
Q 37.25 66.40625 30.609375 66.40625 
Q 23.96875 66.40625 20.09375 61.84375 
Q 16.21875 57.28125 16.21875 49.421875 
Q 16.21875 41.5 20.09375 36.953125 
Q 23.96875 32.421875 30.609375 32.421875 
z
" id="DejaVuSans-57"/>
    </defs>
    <g transform="translate(7.2 300.878625)scale(0.12 -0.12)">
     <use xlink:href="#DejaVuSans-99"/>
     <use x="54.980469" xlink:href="#DejaVuSans-104"/>
     <use x="118.359375" xlink:href="#DejaVuSans-105"/>
     <use x="146.142578" xlink:href="#DejaVuSans-110"/>
     <use x="209.521484" xlink:href="#DejaVuSans-97"/>
     <use x="270.800781" xlink:href="#DejaVuSans-95"/>
     <use x="320.800781" xlink:href="#DejaVuSans-119"/>
     <use x="402.587891" xlink:href="#DejaVuSans-105"/>
     <use x="430.371094" xlink:href="#DejaVuSans-116"/>
     <use x="469.580078" xlink:href="#DejaVuSans-104"/>
     <use x="532.958984" xlink:href="#DejaVuSans-95"/>
     <use x="582.958984" xlink:href="#DejaVuSans-110"/>
     <use x="646.337891" xlink:href="#DejaVuSans-111"/>
     <use x="707.519531" xlink:href="#DejaVuSans-114"/>
     <use x="748.617188" xlink:href="#DejaVuSans-109"/>
     <use x="846.029297" xlink:href="#DejaVuSans-97"/>
     <use x="907.308594" xlink:href="#DejaVuSans-108"/>
     <use x="935.091797" xlink:href="#DejaVuSans-95"/>
     <use x="985.091797" xlink:href="#DejaVuSans-116"/>
     <use x="1024.300781" xlink:href="#DejaVuSans-71"/>
     <use x="1101.791016" xlink:href="#DejaVuSans-65"/>
     <use x="1170.199219" xlink:href="#DejaVuSans-78"/>
     <use x="1245.003906" xlink:href="#DejaVuSans-95"/>
     <use x="1295.003906" xlink:href="#DejaVuSans-50"/>
     <use x="1358.626953" xlink:href="#DejaVuSans-32"/>
     <use x="1390.414062" xlink:href="#DejaVuSans-97"/>
     <use x="1451.693359" xlink:href="#DejaVuSans-100"/>
     <use x="1515.169922" xlink:href="#DejaVuSans-101"/>
     <use x="1576.693359" xlink:href="#DejaVuSans-32"/>
     <use x="1608.480469" xlink:href="#DejaVuSans-32"/>
     <use x="1640.267578" xlink:href="#DejaVuSans-61"/>
     <use x="1724.056641" xlink:href="#DejaVuSans-32"/>
     <use x="1755.84375" xlink:href="#DejaVuSans-48"/>
     <use x="1819.466797" xlink:href="#DejaVuSans-46"/>
     <use x="1851.253906" xlink:href="#DejaVuSans-52"/>
     <use x="1914.876953" xlink:href="#DejaVuSans-51"/>
     <use x="1978.5" xlink:href="#DejaVuSans-50"/>
     <use x="2042.123047" xlink:href="#DejaVuSans-49"/>
     <use x="2105.746094" xlink:href="#DejaVuSans-53"/>
     <use x="2169.369141" xlink:href="#DejaVuSans-55"/>
     <use x="2232.992188" xlink:href="#DejaVuSans-32"/>
     <use x="2264.779297" xlink:href="#DejaVuSans-32"/>
     <use x="2296.566406" xlink:href="#DejaVuSans-32"/>
     <use x="2328.353516" xlink:href="#DejaVuSans-32"/>
     <use x="2360.140625" xlink:href="#DejaVuSans-99"/>
     <use x="2415.121094" xlink:href="#DejaVuSans-104"/>
     <use x="2478.5" xlink:href="#DejaVuSans-105"/>
     <use x="2506.283203" xlink:href="#DejaVuSans-110"/>
     <use x="2569.662109" xlink:href="#DejaVuSans-97"/>
     <use x="2630.941406" xlink:href="#DejaVuSans-95"/>
     <use x="2680.941406" xlink:href="#DejaVuSans-119"/>
     <use x="2762.728516" xlink:href="#DejaVuSans-105"/>
     <use x="2790.511719" xlink:href="#DejaVuSans-116"/>
     <use x="2829.720703" xlink:href="#DejaVuSans-104"/>
     <use x="2893.099609" xlink:href="#DejaVuSans-95"/>
     <use x="2943.099609" xlink:href="#DejaVuSans-110"/>
     <use x="3006.478516" xlink:href="#DejaVuSans-111"/>
     <use x="3067.660156" xlink:href="#DejaVuSans-114"/>
     <use x="3108.757812" xlink:href="#DejaVuSans-109"/>
     <use x="3206.169922" xlink:href="#DejaVuSans-97"/>
     <use x="3267.449219" xlink:href="#DejaVuSans-108"/>
     <use x="3295.232422" xlink:href="#DejaVuSans-95"/>
     <use x="3345.232422" xlink:href="#DejaVuSans-116"/>
     <use x="3384.441406" xlink:href="#DejaVuSans-71"/>
     <use x="3461.931641" xlink:href="#DejaVuSans-65"/>
     <use x="3530.339844" xlink:href="#DejaVuSans-78"/>
     <use x="3605.144531" xlink:href="#DejaVuSans-95"/>
     <use x="3655.144531" xlink:href="#DejaVuSans-50"/>
     <use x="3718.767578" xlink:href="#DejaVuSans-32"/>
     <use x="3750.554688" xlink:href="#DejaVuSans-102"/>
     <use x="3785.759766" xlink:href="#DejaVuSans-100"/>
     <use x="3849.236328" xlink:href="#DejaVuSans-101"/>
     <use x="3910.759766" xlink:href="#DejaVuSans-32"/>
     <use x="3942.546875" xlink:href="#DejaVuSans-61"/>
     <use x="4026.335938" xlink:href="#DejaVuSans-32"/>
     <use x="4058.123047" xlink:href="#DejaVuSans-48"/>
     <use x="4121.746094" xlink:href="#DejaVuSans-46"/>
     <use x="4153.533203" xlink:href="#DejaVuSans-48"/>
     <use x="4217.15625" xlink:href="#DejaVuSans-57"/>
     <use x="4280.779297" xlink:href="#DejaVuSans-51"/>
     <use x="4344.402344" xlink:href="#DejaVuSans-49"/>
     <use x="4408.025391" xlink:href="#DejaVuSans-53"/>
     <use x="4471.648438" xlink:href="#DejaVuSans-49"/>
    </g>
    <!-- china_with_normal_tGAN_3 ade  = 1.003834    china_with_normal_tGAN_3 fde = 0.231437 -->
    <g transform="translate(7.2 314.64975)scale(0.12 -0.12)">
     <use xlink:href="#DejaVuSans-99"/>
     <use x="54.980469" xlink:href="#DejaVuSans-104"/>
     <use x="118.359375" xlink:href="#DejaVuSans-105"/>
     <use x="146.142578" xlink:href="#DejaVuSans-110"/>
     <use x="209.521484" xlink:href="#DejaVuSans-97"/>
     <use x="270.800781" xlink:href="#DejaVuSans-95"/>
     <use x="320.800781" xlink:href="#DejaVuSans-119"/>
     <use x="402.587891" xlink:href="#DejaVuSans-105"/>
     <use x="430.371094" xlink:href="#DejaVuSans-116"/>
     <use x="469.580078" xlink:href="#DejaVuSans-104"/>
     <use x="532.958984" xlink:href="#DejaVuSans-95"/>
     <use x="582.958984" xlink:href="#DejaVuSans-110"/>
     <use x="646.337891" xlink:href="#DejaVuSans-111"/>
     <use x="707.519531" xlink:href="#DejaVuSans-114"/>
     <use x="748.617188" xlink:href="#DejaVuSans-109"/>
     <use x="846.029297" xlink:href="#DejaVuSans-97"/>
     <use x="907.308594" xlink:href="#DejaVuSans-108"/>
     <use x="935.091797" xlink:href="#DejaVuSans-95"/>
     <use x="985.091797" xlink:href="#DejaVuSans-116"/>
     <use x="1024.300781" xlink:href="#DejaVuSans-71"/>
     <use x="1101.791016" xlink:href="#DejaVuSans-65"/>
     <use x="1170.199219" xlink:href="#DejaVuSans-78"/>
     <use x="1245.003906" xlink:href="#DejaVuSans-95"/>
     <use x="1295.003906" xlink:href="#DejaVuSans-51"/>
     <use x="1358.626953" xlink:href="#DejaVuSans-32"/>
     <use x="1390.414062" xlink:href="#DejaVuSans-97"/>
     <use x="1451.693359" xlink:href="#DejaVuSans-100"/>
     <use x="1515.169922" xlink:href="#DejaVuSans-101"/>
     <use x="1576.693359" xlink:href="#DejaVuSans-32"/>
     <use x="1608.480469" xlink:href="#DejaVuSans-32"/>
     <use x="1640.267578" xlink:href="#DejaVuSans-61"/>
     <use x="1724.056641" xlink:href="#DejaVuSans-32"/>
     <use x="1755.84375" xlink:href="#DejaVuSans-49"/>
     <use x="1819.466797" xlink:href="#DejaVuSans-46"/>
     <use x="1851.253906" xlink:href="#DejaVuSans-48"/>
     <use x="1914.876953" xlink:href="#DejaVuSans-48"/>
     <use x="1978.5" xlink:href="#DejaVuSans-51"/>
     <use x="2042.123047" xlink:href="#DejaVuSans-56"/>
     <use x="2105.746094" xlink:href="#DejaVuSans-51"/>
     <use x="2169.369141" xlink:href="#DejaVuSans-52"/>
     <use x="2232.992188" xlink:href="#DejaVuSans-32"/>
     <use x="2264.779297" xlink:href="#DejaVuSans-32"/>
     <use x="2296.566406" xlink:href="#DejaVuSans-32"/>
     <use x="2328.353516" xlink:href="#DejaVuSans-32"/>
     <use x="2360.140625" xlink:href="#DejaVuSans-99"/>
     <use x="2415.121094" xlink:href="#DejaVuSans-104"/>
     <use x="2478.5" xlink:href="#DejaVuSans-105"/>
     <use x="2506.283203" xlink:href="#DejaVuSans-110"/>
     <use x="2569.662109" xlink:href="#DejaVuSans-97"/>
     <use x="2630.941406" xlink:href="#DejaVuSans-95"/>
     <use x="2680.941406" xlink:href="#DejaVuSans-119"/>
     <use x="2762.728516" xlink:href="#DejaVuSans-105"/>
     <use x="2790.511719" xlink:href="#DejaVuSans-116"/>
     <use x="2829.720703" xlink:href="#DejaVuSans-104"/>
     <use x="2893.099609" xlink:href="#DejaVuSans-95"/>
     <use x="2943.099609" xlink:href="#DejaVuSans-110"/>
     <use x="3006.478516" xlink:href="#DejaVuSans-111"/>
     <use x="3067.660156" xlink:href="#DejaVuSans-114"/>
     <use x="3108.757812" xlink:href="#DejaVuSans-109"/>
     <use x="3206.169922" xlink:href="#DejaVuSans-97"/>
     <use x="3267.449219" xlink:href="#DejaVuSans-108"/>
     <use x="3295.232422" xlink:href="#DejaVuSans-95"/>
     <use x="3345.232422" xlink:href="#DejaVuSans-116"/>
     <use x="3384.441406" xlink:href="#DejaVuSans-71"/>
     <use x="3461.931641" xlink:href="#DejaVuSans-65"/>
     <use x="3530.339844" xlink:href="#DejaVuSans-78"/>
     <use x="3605.144531" xlink:href="#DejaVuSans-95"/>
     <use x="3655.144531" xlink:href="#DejaVuSans-51"/>
     <use x="3718.767578" xlink:href="#DejaVuSans-32"/>
     <use x="3750.554688" xlink:href="#DejaVuSans-102"/>
     <use x="3785.759766" xlink:href="#DejaVuSans-100"/>
     <use x="3849.236328" xlink:href="#DejaVuSans-101"/>
     <use x="3910.759766" xlink:href="#DejaVuSans-32"/>
     <use x="3942.546875" xlink:href="#DejaVuSans-61"/>
     <use x="4026.335938" xlink:href="#DejaVuSans-32"/>
     <use x="4058.123047" xlink:href="#DejaVuSans-48"/>
     <use x="4121.746094" xlink:href="#DejaVuSans-46"/>
     <use x="4153.533203" xlink:href="#DejaVuSans-50"/>
     <use x="4217.15625" xlink:href="#DejaVuSans-51"/>
     <use x="4280.779297" xlink:href="#DejaVuSans-49"/>
     <use x="4344.402344" xlink:href="#DejaVuSans-52"/>
     <use x="4408.025391" xlink:href="#DejaVuSans-51"/>
     <use x="4471.648438" xlink:href="#DejaVuSans-55"/>
    </g>
    <!-- china_with_normal_tGAN_4 ade  = 0.227695    china_with_normal_tGAN_4 fde = 0.055998 -->
    <g transform="translate(7.2 328.420875)scale(0.12 -0.12)">
     <use xlink:href="#DejaVuSans-99"/>
     <use x="54.980469" xlink:href="#DejaVuSans-104"/>
     <use x="118.359375" xlink:href="#DejaVuSans-105"/>
     <use x="146.142578" xlink:href="#DejaVuSans-110"/>
     <use x="209.521484" xlink:href="#DejaVuSans-97"/>
     <use x="270.800781" xlink:href="#DejaVuSans-95"/>
     <use x="320.800781" xlink:href="#DejaVuSans-119"/>
     <use x="402.587891" xlink:href="#DejaVuSans-105"/>
     <use x="430.371094" xlink:href="#DejaVuSans-116"/>
     <use x="469.580078" xlink:href="#DejaVuSans-104"/>
     <use x="532.958984" xlink:href="#DejaVuSans-95"/>
     <use x="582.958984" xlink:href="#DejaVuSans-110"/>
     <use x="646.337891" xlink:href="#DejaVuSans-111"/>
     <use x="707.519531" xlink:href="#DejaVuSans-114"/>
     <use x="748.617188" xlink:href="#DejaVuSans-109"/>
     <use x="846.029297" xlink:href="#DejaVuSans-97"/>
     <use x="907.308594" xlink:href="#DejaVuSans-108"/>
     <use x="935.091797" xlink:href="#DejaVuSans-95"/>
     <use x="985.091797" xlink:href="#DejaVuSans-116"/>
     <use x="1024.300781" xlink:href="#DejaVuSans-71"/>
     <use x="1101.791016" xlink:href="#DejaVuSans-65"/>
     <use x="1170.199219" xlink:href="#DejaVuSans-78"/>
     <use x="1245.003906" xlink:href="#DejaVuSans-95"/>
     <use x="1295.003906" xlink:href="#DejaVuSans-52"/>
     <use x="1358.626953" xlink:href="#DejaVuSans-32"/>
     <use x="1390.414062" xlink:href="#DejaVuSans-97"/>
     <use x="1451.693359" xlink:href="#DejaVuSans-100"/>
     <use x="1515.169922" xlink:href="#DejaVuSans-101"/>
     <use x="1576.693359" xlink:href="#DejaVuSans-32"/>
     <use x="1608.480469" xlink:href="#DejaVuSans-32"/>
     <use x="1640.267578" xlink:href="#DejaVuSans-61"/>
     <use x="1724.056641" xlink:href="#DejaVuSans-32"/>
     <use x="1755.84375" xlink:href="#DejaVuSans-48"/>
     <use x="1819.466797" xlink:href="#DejaVuSans-46"/>
     <use x="1851.253906" xlink:href="#DejaVuSans-50"/>
     <use x="1914.876953" xlink:href="#DejaVuSans-50"/>
     <use x="1978.5" xlink:href="#DejaVuSans-55"/>
     <use x="2042.123047" xlink:href="#DejaVuSans-54"/>
     <use x="2105.746094" xlink:href="#DejaVuSans-57"/>
     <use x="2169.369141" xlink:href="#DejaVuSans-53"/>
     <use x="2232.992188" xlink:href="#DejaVuSans-32"/>
     <use x="2264.779297" xlink:href="#DejaVuSans-32"/>
     <use x="2296.566406" xlink:href="#DejaVuSans-32"/>
     <use x="2328.353516" xlink:href="#DejaVuSans-32"/>
     <use x="2360.140625" xlink:href="#DejaVuSans-99"/>
     <use x="2415.121094" xlink:href="#DejaVuSans-104"/>
     <use x="2478.5" xlink:href="#DejaVuSans-105"/>
     <use x="2506.283203" xlink:href="#DejaVuSans-110"/>
     <use x="2569.662109" xlink:href="#DejaVuSans-97"/>
     <use x="2630.941406" xlink:href="#DejaVuSans-95"/>
     <use x="2680.941406" xlink:href="#DejaVuSans-119"/>
     <use x="2762.728516" xlink:href="#DejaVuSans-105"/>
     <use x="2790.511719" xlink:href="#DejaVuSans-116"/>
     <use x="2829.720703" xlink:href="#DejaVuSans-104"/>
     <use x="2893.099609" xlink:href="#DejaVuSans-95"/>
     <use x="2943.099609" xlink:href="#DejaVuSans-110"/>
     <use x="3006.478516" xlink:href="#DejaVuSans-111"/>
     <use x="3067.660156" xlink:href="#DejaVuSans-114"/>
     <use x="3108.757812" xlink:href="#DejaVuSans-109"/>
     <use x="3206.169922" xlink:href="#DejaVuSans-97"/>
     <use x="3267.449219" xlink:href="#DejaVuSans-108"/>
     <use x="3295.232422" xlink:href="#DejaVuSans-95"/>
     <use x="3345.232422" xlink:href="#DejaVuSans-116"/>
     <use x="3384.441406" xlink:href="#DejaVuSans-71"/>
     <use x="3461.931641" xlink:href="#DejaVuSans-65"/>
     <use x="3530.339844" xlink:href="#DejaVuSans-78"/>
     <use x="3605.144531" xlink:href="#DejaVuSans-95"/>
     <use x="3655.144531" xlink:href="#DejaVuSans-52"/>
     <use x="3718.767578" xlink:href="#DejaVuSans-32"/>
     <use x="3750.554688" xlink:href="#DejaVuSans-102"/>
     <use x="3785.759766" xlink:href="#DejaVuSans-100"/>
     <use x="3849.236328" xlink:href="#DejaVuSans-101"/>
     <use x="3910.759766" xlink:href="#DejaVuSans-32"/>
     <use x="3942.546875" xlink:href="#DejaVuSans-61"/>
     <use x="4026.335938" xlink:href="#DejaVuSans-32"/>
     <use x="4058.123047" xlink:href="#DejaVuSans-48"/>
     <use x="4121.746094" xlink:href="#DejaVuSans-46"/>
     <use x="4153.533203" xlink:href="#DejaVuSans-48"/>
     <use x="4217.15625" xlink:href="#DejaVuSans-53"/>
     <use x="4280.779297" xlink:href="#DejaVuSans-53"/>
     <use x="4344.402344" xlink:href="#DejaVuSans-57"/>
     <use x="4408.025391" xlink:href="#DejaVuSans-57"/>
     <use x="4471.648438" xlink:href="#DejaVuSans-56"/>
    </g>
    <!--  -->
    <g transform="translate(279.312187 342.192)scale(0.12 -0.12)"/>
   </g>
   <g id="legend_1">
    <g id="patch_6">
     <path d="M 320.452812 89.425 
L 488.312187 89.425 
Q 490.312187 89.425 490.312187 87.425 
L 490.312187 14.2 
Q 490.312187 12.2 488.312187 12.2 
L 320.452812 12.2 
Q 318.452812 12.2 318.452812 14.2 
L 318.452812 87.425 
Q 318.452812 89.425 320.452812 89.425 
z
" style="fill:#ffffff;opacity:0.8;stroke:#cccccc;stroke-linejoin:miter;"/>
    </g>
    <g id="line2d_32">
     <path d="M 322.452812 20.298437 
L 342.452812 20.298437 
" style="fill:none;stroke:#ff0000;stroke-linecap:square;"/>
    </g>
    <g id="line2d_33"/>
    <g id="text_25">
     <!-- input -->
     <defs>
      <path d="M 18.109375 8.203125 
L 18.109375 -20.796875 
L 9.078125 -20.796875 
L 9.078125 54.6875 
L 18.109375 54.6875 
L 18.109375 46.390625 
Q 20.953125 51.265625 25.265625 53.625 
Q 29.59375 56 35.59375 56 
Q 45.5625 56 51.78125 48.09375 
Q 58.015625 40.1875 58.015625 27.296875 
Q 58.015625 14.40625 51.78125 6.484375 
Q 45.5625 -1.421875 35.59375 -1.421875 
Q 29.59375 -1.421875 25.265625 0.953125 
Q 20.953125 3.328125 18.109375 8.203125 
z
M 48.6875 27.296875 
Q 48.6875 37.203125 44.609375 42.84375 
Q 40.53125 48.484375 33.40625 48.484375 
Q 26.265625 48.484375 22.1875 42.84375 
Q 18.109375 37.203125 18.109375 27.296875 
Q 18.109375 17.390625 22.1875 11.75 
Q 26.265625 6.109375 33.40625 6.109375 
Q 40.53125 6.109375 44.609375 11.75 
Q 48.6875 17.390625 48.6875 27.296875 
z
" id="DejaVuSans-112"/>
      <path d="M 8.5 21.578125 
L 8.5 54.6875 
L 17.484375 54.6875 
L 17.484375 21.921875 
Q 17.484375 14.15625 20.5 10.265625 
Q 23.53125 6.390625 29.59375 6.390625 
Q 36.859375 6.390625 41.078125 11.03125 
Q 45.3125 15.671875 45.3125 23.6875 
L 45.3125 54.6875 
L 54.296875 54.6875 
L 54.296875 0 
L 45.3125 0 
L 45.3125 8.40625 
Q 42.046875 3.421875 37.71875 1 
Q 33.40625 -1.421875 27.6875 -1.421875 
Q 18.265625 -1.421875 13.375 4.4375 
Q 8.5 10.296875 8.5 21.578125 
z
M 31.109375 56 
z
" id="DejaVuSans-117"/>
     </defs>
     <g transform="translate(350.452812 23.798437)scale(0.1 -0.1)">
      <use xlink:href="#DejaVuSans-105"/>
      <use x="27.783203" xlink:href="#DejaVuSans-110"/>
      <use x="91.162109" xlink:href="#DejaVuSans-112"/>
      <use x="154.638672" xlink:href="#DejaVuSans-117"/>
      <use x="218.017578" xlink:href="#DejaVuSans-116"/>
     </g>
    </g>
    <g id="line2d_34">
     <path d="M 322.452812 34.976562 
L 342.452812 34.976562 
" style="fill:none;stroke:#008000;stroke-linecap:square;"/>
    </g>
    <g id="line2d_35">
     <g>
      <use style="fill:#008000;stroke:#008000;stroke-linejoin:miter;" x="332.452812" xlink:href="#m240c440c33" y="34.976562"/>
     </g>
    </g>
    <g id="text_26">
     <!-- groudtruth -->
     <defs>
      <path d="M 45.40625 27.984375 
Q 45.40625 37.75 41.375 43.109375 
Q 37.359375 48.484375 30.078125 48.484375 
Q 22.859375 48.484375 18.828125 43.109375 
Q 14.796875 37.75 14.796875 27.984375 
Q 14.796875 18.265625 18.828125 12.890625 
Q 22.859375 7.515625 30.078125 7.515625 
Q 37.359375 7.515625 41.375 12.890625 
Q 45.40625 18.265625 45.40625 27.984375 
z
M 54.390625 6.78125 
Q 54.390625 -7.171875 48.1875 -13.984375 
Q 42 -20.796875 29.203125 -20.796875 
Q 24.46875 -20.796875 20.265625 -20.09375 
Q 16.0625 -19.390625 12.109375 -17.921875 
L 12.109375 -9.1875 
Q 16.0625 -11.328125 19.921875 -12.34375 
Q 23.78125 -13.375 27.78125 -13.375 
Q 36.625 -13.375 41.015625 -8.765625 
Q 45.40625 -4.15625 45.40625 5.171875 
L 45.40625 9.625 
Q 42.625 4.78125 38.28125 2.390625 
Q 33.9375 0 27.875 0 
Q 17.828125 0 11.671875 7.65625 
Q 5.515625 15.328125 5.515625 27.984375 
Q 5.515625 40.671875 11.671875 48.328125 
Q 17.828125 56 27.875 56 
Q 33.9375 56 38.28125 53.609375 
Q 42.625 51.21875 45.40625 46.390625 
L 45.40625 54.6875 
L 54.390625 54.6875 
z
" id="DejaVuSans-103"/>
     </defs>
     <g transform="translate(350.452812 38.476562)scale(0.1 -0.1)">
      <use xlink:href="#DejaVuSans-103"/>
      <use x="63.476562" xlink:href="#DejaVuSans-114"/>
      <use x="104.558594" xlink:href="#DejaVuSans-111"/>
      <use x="165.740234" xlink:href="#DejaVuSans-117"/>
      <use x="229.119141" xlink:href="#DejaVuSans-100"/>
      <use x="292.595703" xlink:href="#DejaVuSans-116"/>
      <use x="331.804688" xlink:href="#DejaVuSans-114"/>
      <use x="372.917969" xlink:href="#DejaVuSans-117"/>
      <use x="436.296875" xlink:href="#DejaVuSans-116"/>
      <use x="475.505859" xlink:href="#DejaVuSans-104"/>
     </g>
    </g>
    <g id="line2d_36">
     <path d="M 322.452812 49.654687 
L 342.452812 49.654687 
" style="fill:none;stroke:#bfbf00;stroke-linecap:square;"/>
    </g>
    <g id="line2d_37">
     <g>
      <use style="fill:#bfbf00;stroke:#bfbf00;" x="332.452812" xlink:href="#m5142de1ac7" y="49.654687"/>
     </g>
    </g>
    <g id="text_27">
     <!-- china_with_normal_tGAN_2 -->
     <g transform="translate(350.452812 53.154687)scale(0.1 -0.1)">
      <use xlink:href="#DejaVuSans-99"/>
      <use x="54.980469" xlink:href="#DejaVuSans-104"/>
      <use x="118.359375" xlink:href="#DejaVuSans-105"/>
      <use x="146.142578" xlink:href="#DejaVuSans-110"/>
      <use x="209.521484" xlink:href="#DejaVuSans-97"/>
      <use x="270.800781" xlink:href="#DejaVuSans-95"/>
      <use x="320.800781" xlink:href="#DejaVuSans-119"/>
      <use x="402.587891" xlink:href="#DejaVuSans-105"/>
      <use x="430.371094" xlink:href="#DejaVuSans-116"/>
      <use x="469.580078" xlink:href="#DejaVuSans-104"/>
      <use x="532.958984" xlink:href="#DejaVuSans-95"/>
      <use x="582.958984" xlink:href="#DejaVuSans-110"/>
      <use x="646.337891" xlink:href="#DejaVuSans-111"/>
      <use x="707.519531" xlink:href="#DejaVuSans-114"/>
      <use x="748.617188" xlink:href="#DejaVuSans-109"/>
      <use x="846.029297" xlink:href="#DejaVuSans-97"/>
      <use x="907.308594" xlink:href="#DejaVuSans-108"/>
      <use x="935.091797" xlink:href="#DejaVuSans-95"/>
      <use x="985.091797" xlink:href="#DejaVuSans-116"/>
      <use x="1024.300781" xlink:href="#DejaVuSans-71"/>
      <use x="1101.791016" xlink:href="#DejaVuSans-65"/>
      <use x="1170.199219" xlink:href="#DejaVuSans-78"/>
      <use x="1245.003906" xlink:href="#DejaVuSans-95"/>
      <use x="1295.003906" xlink:href="#DejaVuSans-50"/>
     </g>
    </g>
    <g id="line2d_38">
     <path d="M 322.452812 64.610937 
L 342.452812 64.610937 
" style="fill:none;stroke:#00bfbf;stroke-linecap:square;"/>
    </g>
    <g id="line2d_39">
     <g>
      <use style="fill:#00bfbf;stroke:#00bfbf;" x="332.452812" xlink:href="#m395e4e6595" y="64.610937"/>
     </g>
    </g>
    <g id="text_28">
     <!-- china_with_normal_tGAN_3 -->
     <g transform="translate(350.452812 68.110937)scale(0.1 -0.1)">
      <use xlink:href="#DejaVuSans-99"/>
      <use x="54.980469" xlink:href="#DejaVuSans-104"/>
      <use x="118.359375" xlink:href="#DejaVuSans-105"/>
      <use x="146.142578" xlink:href="#DejaVuSans-110"/>
      <use x="209.521484" xlink:href="#DejaVuSans-97"/>
      <use x="270.800781" xlink:href="#DejaVuSans-95"/>
      <use x="320.800781" xlink:href="#DejaVuSans-119"/>
      <use x="402.587891" xlink:href="#DejaVuSans-105"/>
      <use x="430.371094" xlink:href="#DejaVuSans-116"/>
      <use x="469.580078" xlink:href="#DejaVuSans-104"/>
      <use x="532.958984" xlink:href="#DejaVuSans-95"/>
      <use x="582.958984" xlink:href="#DejaVuSans-110"/>
      <use x="646.337891" xlink:href="#DejaVuSans-111"/>
      <use x="707.519531" xlink:href="#DejaVuSans-114"/>
      <use x="748.617188" xlink:href="#DejaVuSans-109"/>
      <use x="846.029297" xlink:href="#DejaVuSans-97"/>
      <use x="907.308594" xlink:href="#DejaVuSans-108"/>
      <use x="935.091797" xlink:href="#DejaVuSans-95"/>
      <use x="985.091797" xlink:href="#DejaVuSans-116"/>
      <use x="1024.300781" xlink:href="#DejaVuSans-71"/>
      <use x="1101.791016" xlink:href="#DejaVuSans-65"/>
      <use x="1170.199219" xlink:href="#DejaVuSans-78"/>
      <use x="1245.003906" xlink:href="#DejaVuSans-95"/>
      <use x="1295.003906" xlink:href="#DejaVuSans-51"/>
     </g>
    </g>
    <g id="line2d_40">
     <path d="M 322.452812 79.567187 
L 342.452812 79.567187 
" style="fill:none;stroke:#bf00bf;stroke-linecap:square;"/>
    </g>
    <g id="line2d_41">
     <g>
      <use style="fill:#bf00bf;stroke:#bf00bf;" x="332.452812" xlink:href="#m88fd95f8f3" y="79.567187"/>
     </g>
    </g>
    <g id="text_29">
     <!-- china_with_normal_tGAN_4 -->
     <g transform="translate(350.452812 83.067187)scale(0.1 -0.1)">
      <use xlink:href="#DejaVuSans-99"/>
      <use x="54.980469" xlink:href="#DejaVuSans-104"/>
      <use x="118.359375" xlink:href="#DejaVuSans-105"/>
      <use x="146.142578" xlink:href="#DejaVuSans-110"/>
      <use x="209.521484" xlink:href="#DejaVuSans-97"/>
      <use x="270.800781" xlink:href="#DejaVuSans-95"/>
      <use x="320.800781" xlink:href="#DejaVuSans-119"/>
      <use x="402.587891" xlink:href="#DejaVuSans-105"/>
      <use x="430.371094" xlink:href="#DejaVuSans-116"/>
      <use x="469.580078" xlink:href="#DejaVuSans-104"/>
      <use x="532.958984" xlink:href="#DejaVuSans-95"/>
      <use x="582.958984" xlink:href="#DejaVuSans-110"/>
      <use x="646.337891" xlink:href="#DejaVuSans-111"/>
      <use x="707.519531" xlink:href="#DejaVuSans-114"/>
      <use x="748.617188" xlink:href="#DejaVuSans-109"/>
      <use x="846.029297" xlink:href="#DejaVuSans-97"/>
      <use x="907.308594" xlink:href="#DejaVuSans-108"/>
      <use x="935.091797" xlink:href="#DejaVuSans-95"/>
      <use x="985.091797" xlink:href="#DejaVuSans-116"/>
      <use x="1024.300781" xlink:href="#DejaVuSans-71"/>
      <use x="1101.791016" xlink:href="#DejaVuSans-65"/>
      <use x="1170.199219" xlink:href="#DejaVuSans-78"/>
      <use x="1245.003906" xlink:href="#DejaVuSans-95"/>
      <use x="1295.003906" xlink:href="#DejaVuSans-52"/>
     </g>
    </g>
   </g>
  </g>
 </g>
 <defs>
  <clipPath id="p43eb5f871a">
   <rect height="288" width="432" x="63.312187" y="7.2"/>
  </clipPath>
 </defs>
</svg>
